<svg width="11" height="11" viewBox="0 0 11 11" fill="none" xmlns="http://www.w3.org/2000/svg">
<g id="Group">
<path id="Vector" d="M8.625 4.25C9.66053 4.25 10.5 3.41053 10.5 2.375C10.5 1.33947 9.66053 0.5 8.625 0.5C7.58947 0.5 6.75 1.33947 6.75 2.375C6.75 3.41053 7.58947 4.25 8.625 4.25Z" stroke="#FF6347" stroke-width="0.625" stroke-linecap="round" stroke-linejoin="round"/>
<path id="Vector_2" d="M2.375 10.5C3.41053 10.5 4.25 9.66053 4.25 8.625C4.25 7.58947 3.41053 6.75 2.375 6.75C1.33947 6.75 0.5 7.58947 0.5 8.625C0.5 9.66053 1.33947 10.5 2.375 10.5Z" stroke="#FF6347" stroke-width="0.625" stroke-linecap="round" stroke-linejoin="round"/>
<path id="Vector_3" d="M6.75 6.75H10.5V9.875C10.5 10.0408 10.4342 10.1997 10.3169 10.3169C10.1997 10.4342 10.0408 10.5 9.875 10.5H7.375C7.20924 10.5 7.05027 10.4342 6.93306 10.3169C6.81585 10.1997 6.75 10.0408 6.75 9.875V6.75ZM0.5 0.5H4.25V3.625C4.25 3.79076 4.18415 3.94973 4.06694 4.06694C3.94973 4.18415 3.79076 4.25 3.625 4.25H1.125C0.95924 4.25 0.800269 4.18415 0.683058 4.06694C0.565848 3.94973 0.5 3.79076 0.5 3.625V0.5Z" stroke="#FF6347" stroke-width="0.625" stroke-linecap="round" stroke-linejoin="round"/>
</g>
</svg>
