<svg width="12" height="12" viewBox="0 0 12 12" fill="none" xmlns="http://www.w3.org/2000/svg">
<path d="M10.8748 10.8749L8.46201 8.46213M8.46201 8.46213C8.87472 8.04942 9.2021 7.55946 9.42545 7.02023C9.64881 6.48099 9.76377 5.90305 9.76377 5.31939C9.76377 4.73572 9.64881 4.15778 9.42545 3.61855C9.2021 3.07931 8.87472 2.58936 8.46201 2.17664C8.04929 1.76393 7.55934 1.43655 7.0201 1.2132C6.48087 0.989839 5.90293 0.874878 5.31926 0.874878C4.7356 0.874878 4.15766 0.989839 3.61842 1.2132C3.07919 1.43655 2.58923 1.76393 2.17652 2.17664C1.34302 3.01015 0.874756 4.14063 0.874756 5.31939C0.874756 6.49814 1.34302 7.62862 2.17652 8.46213C3.01003 9.29563 4.14051 9.76389 5.31926 9.76389C6.49802 9.76389 7.6285 9.29563 8.46201 8.46213Z" stroke="#FF6347" stroke-width="0.625" stroke-linecap="round" stroke-linejoin="round"/>
</svg>
