<svg width="8" height="11" viewBox="0 0 8 11" fill="none" xmlns="http://www.w3.org/2000/svg">
<path fill-rule="evenodd" clip-rule="evenodd" d="M5.40879 0.25L5.10629 1.41L5.12329 1.1575L3.60179 1.88525V0.912L1.85179 1.4475V2.3525L1.40929 0.70175L0.00878906 2.011L0.618789 4.28675C0.647789 4.30175 0.674206 4.32075 0.698039 4.34375C0.905372 4.54442 1.10537 4.72683 1.29804 4.891L0.569539 2.17125L1.14204 1.63625L1.85204 4.283V5.32325C2.02254 5.44392 2.18921 5.54808 2.35204 5.63575V1.8175L3.10204 1.58825V5.93C3.29154 5.9745 3.47996 5.99458 3.66729 5.99025L3.91879 2.28775L4.56629 1.97775L4.30104 5.88375C4.51544 5.81518 4.72213 5.72453 4.91779 5.61325L5.49954 3.4415L6.20954 3.2285L5.71954 5.0565C5.95487 4.8631 6.18207 4.66001 6.40054 4.44775L6.93729 2.44425L6.49554 2.55725L7.18804 0.25H5.40879ZM6.51579 0.75L5.93029 2.702L5.23979 2.8785L5.79479 0.75H6.51579Z" fill="#FF6347"/>
<path fill-rule="evenodd" clip-rule="evenodd" d="M6.49904 5.04225C5.51104 5.94975 4.59879 6.49275 3.61329 6.49125C2.62729 6.48975 1.70704 5.94275 0.703791 5.03425L1.29329 9.75H5.91054L6.49904 5.04225ZM0.469041 4.25C0.274041 4.25 0.123291 4.421 0.147291 4.6145L0.797291 9.812C0.812395 9.93286 0.871098 10.0441 0.962378 10.1247C1.05366 10.2054 1.17124 10.2499 1.29304 10.25H5.91029C6.03214 10.25 6.14978 10.2054 6.24111 10.1248C6.33244 10.0441 6.39118 9.93291 6.40629 9.812L7.05629 4.61325C7.06487 4.54614 7.05217 4.47804 7.01999 4.41853C6.98782 4.35902 6.93778 4.3111 6.87693 4.28153C6.81608 4.25196 6.74749 4.24223 6.68082 4.25371C6.61414 4.26518 6.55275 4.29729 6.50529 4.3455C4.27029 6.5445 2.96554 6.5355 0.697791 4.34375C0.636487 4.28432 0.55467 4.25075 0.469291 4.25" fill="#FF6347"/>
</svg>
