<svg width="11" height="12" viewBox="0 0 11 12" fill="none" xmlns="http://www.w3.org/2000/svg">
<path d="M9.29167 3.79171L1.70833 4.33337M9.29167 1.08337L1.70833 2.70837M1.16667 5.95837H9.83333C9.97699 5.95837 10.1148 6.01544 10.2164 6.11702C10.3179 6.21861 10.375 6.35638 10.375 6.50004V6.77087C10.375 7.58337 9.01163 9.78958 8.20833 10.2917V10.8334C8.20833 10.977 8.15127 11.1148 8.04968 11.2164C7.9481 11.318 7.81033 11.375 7.66667 11.375H3.33333C3.18967 11.375 3.0519 11.318 2.95032 11.2164C2.84873 11.1148 2.79167 10.977 2.79167 10.8334V10.2917C1.87787 9.72079 0.625 7.58337 0.625 6.77087V6.50004C0.625 6.35638 0.682068 6.21861 0.78365 6.11702C0.885233 6.01544 1.02301 5.95837 1.16667 5.95837Z" stroke="#FF6347" stroke-width="0.63" stroke-linecap="round" stroke-linejoin="round"/>
</svg>
