<svg width="211" height="52" viewBox="0 0 211 52" fill="none" xmlns="http://www.w3.org/2000/svg">
<path d="M21.3334 43.6666H29.6667V41.375L32.2709 40.3333C34.5279 39.4305 36.4466 38.1722 38.0272 36.5583C39.6077 34.9444 40.7445 33.1472 41.4376 31.1666H9.56258C10.257 33.1458 11.3855 34.943 12.948 36.5583C14.5105 38.1736 16.4376 39.4319 18.7292 40.3333L21.3334 41.375V43.6666ZM17.1667 47.8333V44.1875C13.4515 42.7291 10.4397 40.4722 8.13133 37.4166C5.823 34.3611 4.66814 30.8888 4.66675 27H8.83342V10.3333L46.3334 6.16663V9.29163L22.3751 12V15.5416H46.3334V18.6666H22.3751V27H46.3334C46.3334 30.8888 45.1792 34.3611 42.8709 37.4166C40.5626 40.4722 37.5501 42.7291 33.8334 44.1875V47.8333H17.1667ZM17.1667 15.5416H19.2501V12.3125L17.1667 12.5729V15.5416ZM11.9584 15.5416H14.0417V12.9375L11.9584 13.1458V15.5416ZM17.1667 27H19.2501V18.6666H17.1667V27ZM11.9584 27H14.0417V18.6666H11.9584V27Z" fill="#1F316B"/>
<path d="M80.58 13.56L85.4 20.66C86.58 22.42 86.84 22.78 87.52 23.62H82.32C82.04 22.98 81.46 21.92 80.94 21.08L77.84 16.12L75.82 18.14V20.66C75.82 21.9 75.86 22.56 75.98 23.62H71.74C71.86 22.6 71.9 21.86 71.9 20.66V9.94C71.9 8.72 71.86 7.94 71.74 6.98H75.98C75.86 8.02 75.82 8.68 75.82 9.94V13.48L79.8 9.22C80.58 8.4 81.1 7.72 81.54 6.98H86.94C86.58 7.34 86.44 7.5 86.16 7.78C85.12 8.82 85.12 8.82 84.76 9.18L80.58 13.56ZM106.967 23.62H102.287C102.127 22.66 102.007 22.14 101.807 21.46L101.267 19.76H95.567L95.027 21.46C94.767 22.26 94.627 22.88 94.527 23.62H89.847C90.147 23.02 90.327 22.54 90.807 21.18L95.127 9.14C95.487 8.16 95.667 7.56 95.767 6.98H100.987C101.127 7.56 101.267 8.08 101.667 9.14L106.007 21.18C106.387 22.24 106.707 23.06 106.967 23.62ZM100.287 16.4L98.387 10.4L96.527 16.4H100.287ZM175.631 23.62H170.951C170.791 22.66 170.671 22.14 170.471 21.46L169.931 19.76H164.231L163.691 21.46C163.431 22.26 163.291 22.88 163.191 23.62H158.511C158.811 23.02 158.991 22.54 159.471 21.18L163.791 9.14C164.151 8.16 164.331 7.56 164.431 6.98H169.651C169.791 7.56 169.931 8.08 170.331 9.14L174.671 21.18C175.051 22.24 175.371 23.06 175.631 23.62ZM168.951 16.4L167.051 10.4L165.191 16.4H168.951ZM184.773 9.48L188.573 15.16C189.153 16.02 189.533 16.66 190.013 17.54C189.933 16.62 189.893 15.7 189.893 14.58V10.02C189.893 8.7 189.853 7.9 189.733 6.98H193.993C193.873 7.88 193.833 8.72 193.833 10.02V20.64C193.833 21.86 193.893 22.78 193.993 23.62H189.613C189.253 22.86 188.793 22.12 188.113 21.08L184.413 15.5C183.873 14.7 183.533 14.1 182.973 13.04C183.073 13.94 183.113 15.04 183.113 16.02V20.5C183.113 21.88 183.153 22.76 183.273 23.62H179.013C179.133 22.84 179.173 21.96 179.173 20.48V9.96C179.173 8.8 179.133 7.9 179.013 6.98H183.353C183.553 7.52 183.993 8.32 184.773 9.48Z" fill="#1F316B"/>
<path d="M125.149 11.98L121.029 12.78C120.649 10.96 119.589 10.06 117.869 10.06C115.429 10.06 114.009 11.98 114.009 15.28C114.009 18.54 115.489 20.52 117.969 20.52C119.069 20.52 120.009 20.06 120.589 19.26C120.929 18.78 121.069 18.38 121.189 17.54L125.349 18.16C124.969 19.86 124.529 20.84 123.689 21.82C122.449 23.24 120.509 24 118.089 24C115.649 24 113.589 23.24 112.169 21.8C110.689 20.3 109.849 17.96 109.849 15.28C109.849 12.56 110.689 10.26 112.269 8.7C113.649 7.36 115.669 6.62 118.009 6.62C120.589 6.62 122.609 7.5 123.909 9.24C124.549 10.06 124.889 10.8 125.149 11.98ZM128.824 19.18V15.38C129.444 15.48 130.004 15.52 130.764 15.52H134.724C135.484 15.52 136.044 15.48 136.664 15.38V19.18C136.004 19.08 135.464 19.04 134.724 19.04H130.764C130.024 19.04 129.484 19.08 128.824 19.18ZM155.517 11.98L151.397 12.78C151.017 10.96 149.957 10.06 148.237 10.06C145.797 10.06 144.377 11.98 144.377 15.28C144.377 18.54 145.857 20.52 148.337 20.52C149.437 20.52 150.377 20.06 150.957 19.26C151.297 18.78 151.437 18.38 151.557 17.54L155.717 18.16C155.337 19.86 154.897 20.84 154.057 21.82C152.817 23.24 150.877 24 148.457 24C146.017 24 143.957 23.24 142.537 21.8C141.057 20.3 140.217 17.96 140.217 15.28C140.217 12.56 141.057 10.26 142.637 8.7C144.017 7.36 146.037 6.62 148.377 6.62C150.957 6.62 152.977 7.5 154.277 9.24C154.917 10.06 155.257 10.8 155.517 11.98Z" fill="#FF6347"/>
<path d="M80.58 13.56L80.2183 13.2148L79.9396 13.5068L80.1663 13.8408L80.58 13.56ZM85.4 20.66L85.8153 20.3816L85.8137 20.3792L85.4 20.66ZM87.52 23.62V24.12H88.5681L87.9086 23.3054L87.52 23.62ZM82.32 23.62L81.8619 23.8204L81.993 24.12H82.32V23.62ZM80.94 21.08L81.3651 20.8168L81.364 20.815L80.94 21.08ZM77.84 16.12L78.264 15.855L77.9309 15.322L77.4864 15.7664L77.84 16.12ZM75.82 18.14L75.4664 17.7864L75.32 17.9329V18.14H75.82ZM75.98 23.62V24.12H76.5398L76.4768 23.5638L75.98 23.62ZM71.74 23.62L71.2434 23.5616L71.1777 24.12H71.74V23.62ZM71.74 6.98V6.48H71.1736L71.2439 7.04202L71.74 6.98ZM75.98 6.98L76.4767 7.03731L76.541 6.48H75.98V6.98ZM75.82 13.48H75.32V14.7476L76.1854 13.8213L75.82 13.48ZM79.8 9.22L79.4377 8.87538L79.4346 8.87866L79.8 9.22ZM81.54 6.98V6.48H81.2556L81.1102 6.72446L81.54 6.98ZM86.94 6.98L87.2936 7.33355L88.1471 6.48H86.94V6.98ZM86.16 7.78L86.5136 8.13355L86.5136 8.13355L86.16 7.78ZM84.76 9.18L84.4064 8.82635L84.3983 8.8348L84.76 9.18ZM80.1663 13.8408L84.9863 20.9408L85.8137 20.3792L80.9937 13.2792L80.1663 13.8408ZM84.9847 20.9384C86.1672 22.7022 86.4371 23.077 87.1314 23.9346L87.9086 23.3054C87.2429 22.483 86.9928 22.1378 85.8153 20.3816L84.9847 20.9384ZM87.52 23.12H82.32V24.12H87.52V23.12ZM82.7781 23.4196C82.485 22.7496 81.8917 21.6674 81.3651 20.8168L80.5149 21.3432C81.0283 22.1726 81.595 23.2104 81.8619 23.8204L82.7781 23.4196ZM81.364 20.815L78.264 15.855L77.416 16.385L80.516 21.345L81.364 20.815ZM77.4864 15.7664L75.4664 17.7864L76.1736 18.4936L78.1936 16.4736L77.4864 15.7664ZM75.32 18.14V20.66H76.32V18.14H75.32ZM75.32 20.66C75.32 21.918 75.361 22.5968 75.4832 23.6762L76.4768 23.5638C76.359 22.5232 76.32 21.882 76.32 20.66H75.32ZM75.98 23.12H71.74V24.12H75.98V23.12ZM72.2366 23.6784C72.3592 22.6361 72.4 21.8764 72.4 20.66H71.4C71.4 21.8436 71.3608 22.5639 71.2434 23.5616L72.2366 23.6784ZM72.4 20.66V9.94H71.4V20.66H72.4ZM72.4 9.94C72.4 8.70552 72.3594 7.90395 72.2361 6.91798L71.2439 7.04202C71.3606 7.97605 71.4 8.73447 71.4 9.94H72.4ZM71.74 7.48H75.98V6.48H71.74V7.48ZM75.4833 6.92269C75.3609 7.98317 75.32 8.66238 75.32 9.94H76.32C76.32 8.69762 76.3591 8.05683 76.4767 7.03731L75.4833 6.92269ZM75.32 9.94V13.48H76.32V9.94H75.32ZM76.1854 13.8213L80.1654 9.56134L79.4346 8.87866L75.4546 13.1387L76.1854 13.8213ZM80.1623 9.56461C80.9631 8.72274 81.5073 8.0133 81.9698 7.23554L81.1102 6.72446C80.6927 7.4267 80.1969 8.07726 79.4377 8.87539L80.1623 9.56461ZM81.54 7.48H86.94V6.48H81.54V7.48ZM86.5864 6.62645C86.4027 6.81015 86.2749 6.9431 86.159 7.06405C86.0435 7.18463 85.9421 7.29081 85.8064 7.42645L86.5136 8.13355C86.6579 7.98918 86.7666 7.87537 86.881 7.75595C86.9951 7.6369 87.1173 7.50985 87.2936 7.33355L86.5864 6.62645ZM85.8064 7.42645C84.7664 8.46645 84.7664 8.46645 84.4064 8.82645L85.1136 9.53355C85.4736 9.17355 85.4736 9.17355 86.5136 8.13355L85.8064 7.42645ZM84.3983 8.8348L80.2183 13.2148L80.9417 13.9052L85.1217 9.5252L84.3983 8.8348ZM106.967 23.62V24.12H107.75L107.421 23.4094L106.967 23.62ZM102.287 23.62L101.794 23.7022L101.863 24.12H102.287V23.62ZM101.807 21.46L102.287 21.3189L102.284 21.3086L101.807 21.46ZM101.267 19.76L101.744 19.6086L101.633 19.26H101.267V19.76ZM95.567 19.76V19.26H95.2012L95.0905 19.6086L95.567 19.76ZM95.027 21.46L95.5026 21.6145L95.5036 21.6114L95.027 21.46ZM94.527 23.62V24.12H94.964L95.0225 23.687L94.527 23.62ZM89.847 23.62L89.3998 23.3964L89.038 24.12H89.847V23.62ZM90.807 21.18L90.3364 21.0111L90.3355 21.0136L90.807 21.18ZM95.127 9.14L94.6577 8.96759L94.6564 8.97114L95.127 9.14ZM95.767 6.98V6.48H95.3459L95.2743 6.89505L95.767 6.98ZM100.987 6.98L101.473 6.86268L101.381 6.48H100.987V6.98ZM101.667 9.14L102.137 8.97043L102.135 8.96347L101.667 9.14ZM106.007 21.18L106.478 21.0113L106.477 21.0104L106.007 21.18ZM100.287 16.4V16.9H100.97L100.764 16.2491L100.287 16.4ZM98.387 10.4L98.8637 10.2491L98.382 8.72775L97.9095 10.2519L98.387 10.4ZM96.527 16.4L96.0495 16.252L95.8486 16.9H96.527V16.4ZM106.967 23.12H102.287V24.12H106.967V23.12ZM102.78 23.5378C102.618 22.5616 102.493 22.0215 102.287 21.3189L101.327 21.6011C101.521 22.2585 101.637 22.7584 101.794 23.7022L102.78 23.5378ZM102.284 21.3086L101.744 19.6086L100.79 19.9114L101.33 21.6114L102.284 21.3086ZM101.267 19.26H95.567V20.26H101.267V19.26ZM95.0905 19.6086L94.5505 21.3086L95.5036 21.6114L96.0436 19.9114L95.0905 19.6086ZM94.5515 21.3055C94.2827 22.1327 94.1357 22.782 94.0315 23.553L95.0225 23.687C95.1183 22.978 95.2514 22.3873 95.5025 21.6145L94.5515 21.3055ZM94.527 23.12H89.847V24.12H94.527V23.12ZM90.2942 23.8436C90.6102 23.2117 90.7997 22.7032 91.2785 21.3464L90.3355 21.0136C89.8544 22.3768 89.6839 22.8283 89.3998 23.3964L90.2942 23.8436ZM91.2777 21.3489L95.5977 9.30886L94.6564 8.97114L90.3364 21.0111L91.2777 21.3489ZM95.5964 9.31241C95.9595 8.32384 96.152 7.6901 96.2598 7.06495L95.2743 6.89505C95.1821 7.4299 95.0145 7.99616 94.6577 8.96759L95.5964 9.31241ZM95.767 7.48H100.987V6.48H95.767V7.48ZM100.501 7.09732C100.646 7.69615 100.791 8.23601 101.199 9.31653L102.135 8.96347C101.743 7.92399 101.609 7.42385 101.473 6.86268L100.501 7.09732ZM101.197 9.30955L105.537 21.3496L106.477 21.0104L102.137 8.97045L101.197 9.30955ZM105.536 21.3487C105.917 22.4117 106.244 23.2492 106.514 23.8306L107.421 23.4094C107.17 22.8708 106.857 22.0683 106.478 21.0113L105.536 21.3487ZM100.764 16.2491L98.8637 10.2491L97.9104 10.5509L99.8104 16.5509L100.764 16.2491ZM97.9095 10.2519L96.0495 16.252L97.0046 16.548L98.8646 10.548L97.9095 10.2519ZM96.527 16.9H100.287V15.9H96.527V16.9ZM125.149 11.98L125.245 12.4708L125.748 12.3731L125.638 11.8724L125.149 11.98ZM121.029 12.78L120.54 12.8822L120.641 13.3648L121.125 13.2708L121.029 12.78ZM120.589 19.26L120.994 19.5535L120.997 19.549L120.589 19.26ZM121.189 17.54L121.263 17.0455L120.766 16.9713L120.694 17.4693L121.189 17.54ZM125.349 18.16L125.837 18.2691L125.955 17.7447L125.423 17.6655L125.349 18.16ZM123.689 21.82L124.066 22.1489L124.069 22.1454L123.689 21.82ZM112.169 21.8L112.525 21.4489L112.525 21.4488L112.169 21.8ZM112.269 8.7L111.921 8.34127L111.918 8.3442L112.269 8.7ZM123.909 9.24L123.509 9.53933L123.515 9.54763L123.909 9.24ZM125.054 11.4892L120.934 12.2892L121.125 13.2708L125.245 12.4708L125.054 11.4892ZM121.519 12.6778C121.314 11.6952 120.912 10.9028 120.277 10.358C119.639 9.8101 118.819 9.56 117.869 9.56V10.56C118.64 10.56 119.21 10.7599 119.626 11.117C120.046 11.4772 120.365 12.0448 120.54 12.8822L121.519 12.6778ZM117.869 9.56C116.502 9.56 115.383 10.1067 114.622 11.1352C113.876 12.1438 113.509 13.5676 113.509 15.28H114.509C114.509 13.6924 114.852 12.5062 115.426 11.7298C115.986 10.9733 116.797 10.56 117.869 10.56V9.56ZM113.509 15.28C113.509 16.9776 113.894 18.4063 114.66 19.4234C115.439 20.4576 116.58 21.02 117.969 21.02V20.02C116.878 20.02 116.039 19.5924 115.459 18.8216C114.865 18.0337 114.509 16.8424 114.509 15.28H113.509ZM117.969 21.02C119.213 21.02 120.311 20.4961 120.994 19.5535L120.185 18.9665C119.708 19.6239 118.926 20.02 117.969 20.02V21.02ZM120.997 19.549C121.399 18.9821 121.558 18.4974 121.684 17.6107L120.694 17.4693C120.581 18.2626 120.46 18.5779 120.181 18.971L120.997 19.549ZM121.116 18.0345L125.276 18.6545L125.423 17.6655L121.263 17.0455L121.116 18.0345ZM124.861 18.0509C124.493 19.6994 124.08 20.5956 123.31 21.4946L124.069 22.1454C124.978 21.0844 125.446 20.0206 125.837 18.2691L124.861 18.0509ZM123.313 21.4911C122.192 22.7741 120.407 23.5 118.089 23.5V24.5C120.611 24.5 122.706 23.7059 124.066 22.1489L123.313 21.4911ZM118.089 23.5C115.752 23.5 113.832 22.7736 112.525 21.4489L111.813 22.1511C113.347 23.7064 115.547 24.5 118.089 24.5V23.5ZM112.525 21.4488C111.16 20.065 110.349 17.8641 110.349 15.28H109.349C109.349 18.0559 110.219 20.535 111.813 22.1512L112.525 21.4488ZM110.349 15.28C110.349 12.6602 111.157 10.5007 112.621 9.0558L111.918 8.3442C110.221 10.0193 109.349 12.4598 109.349 15.28H110.349ZM112.618 9.05871C113.886 7.82691 115.772 7.12 118.009 7.12V6.12C115.567 6.12 113.412 6.89308 111.921 8.34129L112.618 9.05871ZM118.009 7.12C120.47 7.12 122.324 7.95313 123.509 9.53926L124.31 8.94074C122.895 7.04686 120.709 6.12 118.009 6.12V7.12ZM123.515 9.54763C124.104 10.3017 124.415 10.9711 124.661 12.0876L125.638 11.8724C125.364 10.6289 124.995 9.8183 124.304 8.93236L123.515 9.54763ZM128.824 19.18H128.324V19.7615L128.899 19.6744L128.824 19.18ZM128.824 15.38L128.904 14.8864L128.324 14.7929V15.38H128.824ZM136.664 15.38H137.164V14.7929L136.584 14.8864L136.664 15.38ZM136.664 19.18L136.589 19.6744L137.164 19.7615V19.18H136.664ZM129.324 19.18V15.38H128.324V19.18H129.324ZM128.744 15.8736C129.396 15.9787 129.983 16.02 130.764 16.02V15.02C130.025 15.02 129.492 14.9813 128.904 14.8864L128.744 15.8736ZM130.764 16.02H134.724V15.02H130.764V16.02ZM134.724 16.02C135.505 16.02 136.092 15.9787 136.744 15.8736L136.584 14.8864C135.996 14.9813 135.463 15.02 134.724 15.02V16.02ZM136.164 15.38V19.18H137.164V15.38H136.164ZM136.739 18.6856C136.052 18.5816 135.487 18.54 134.724 18.54V19.54C135.441 19.54 135.956 19.5784 136.589 19.6744L136.739 18.6856ZM134.724 18.54H130.764V19.54H134.724V18.54ZM130.764 18.54C130.001 18.54 129.436 18.5816 128.749 18.6856L128.899 19.6744C129.532 19.5784 130.047 19.54 130.764 19.54V18.54ZM155.517 11.98L155.612 12.4708L156.115 12.3731L156.005 11.8724L155.517 11.98ZM151.397 12.78L150.907 12.8822L151.008 13.3648L151.492 13.2708L151.397 12.78ZM150.957 19.26L151.361 19.5535L151.365 19.549L150.957 19.26ZM151.557 17.54L151.63 17.0455L151.133 16.9713L151.062 17.4693L151.557 17.54ZM155.717 18.16L156.205 18.2691L156.322 17.7447L155.79 17.6655L155.717 18.16ZM154.057 21.82L154.433 22.1489L154.436 22.1454L154.057 21.82ZM142.537 21.8L142.893 21.4489L142.892 21.4488L142.537 21.8ZM142.637 8.7L142.288 8.34127L142.285 8.3442L142.637 8.7ZM154.277 9.24L153.876 9.53933L153.882 9.54763L154.277 9.24ZM155.421 11.4892L151.301 12.2892L151.492 13.2708L155.612 12.4708L155.421 11.4892ZM151.886 12.6778C151.681 11.6952 151.28 10.9028 150.645 10.358C150.006 9.8101 149.186 9.56 148.237 9.56V10.56C149.007 10.56 149.577 10.7599 149.994 11.117C150.413 11.4772 150.732 12.0448 150.907 12.8822L151.886 12.6778ZM148.237 9.56C146.869 9.56 145.75 10.1067 144.99 11.1352C144.244 12.1438 143.877 13.5676 143.877 15.28H144.877C144.877 13.6924 145.219 12.5062 145.794 11.7298C146.353 10.9733 147.164 10.56 148.237 10.56V9.56ZM143.877 15.28C143.877 16.9776 144.261 18.4063 145.027 19.4234C145.806 20.4576 146.948 21.02 148.337 21.02V20.02C147.245 20.02 146.407 19.5924 145.826 18.8216C145.232 18.0337 144.877 16.8424 144.877 15.28H143.877ZM148.337 21.02C149.58 21.02 150.678 20.4961 151.361 19.5535L150.552 18.9665C150.075 19.6239 149.293 20.02 148.337 20.02V21.02ZM151.365 19.549C151.766 18.9821 151.925 18.4974 152.052 17.6107L151.062 17.4693C150.948 18.2626 150.827 18.5779 150.549 18.971L151.365 19.549ZM151.483 18.0345L155.643 18.6545L155.79 17.6655L151.63 17.0455L151.483 18.0345ZM155.229 18.0509C154.86 19.6994 154.447 20.5956 153.677 21.4946L154.436 22.1454C155.346 21.0844 155.813 20.0206 156.205 18.2691L155.229 18.0509ZM153.68 21.4911C152.56 22.7741 150.775 23.5 148.457 23.5V24.5C150.978 24.5 153.073 23.7059 154.433 22.1489L153.68 21.4911ZM148.457 23.5C146.119 23.5 144.199 22.7736 142.893 21.4489L142.181 22.1511C143.714 23.7064 145.914 24.5 148.457 24.5V23.5ZM142.892 21.4488C141.527 20.065 140.717 17.8641 140.717 15.28H139.717C139.717 18.0559 140.586 20.535 142.181 22.1512L142.892 21.4488ZM140.717 15.28C140.717 12.6602 141.524 10.5007 142.988 9.0558L142.285 8.3442C140.589 10.0193 139.717 12.4598 139.717 15.28H140.717ZM142.985 9.05871C144.253 7.82691 146.139 7.12 148.377 7.12V6.12C145.934 6.12 143.78 6.89308 142.288 8.34129L142.985 9.05871ZM148.377 7.12C150.837 7.12 152.691 7.95313 153.876 9.53926L154.677 8.94074C153.262 7.04686 151.076 6.12 148.377 6.12V7.12ZM153.882 9.54763C154.471 10.3017 154.782 10.9711 155.028 12.0876L156.005 11.8724C155.731 10.6289 155.362 9.8183 154.671 8.93236L153.882 9.54763ZM175.631 23.62V24.12H176.415L176.085 23.4094L175.631 23.62ZM170.951 23.62L170.458 23.7022L170.528 24.12H170.951V23.62ZM170.471 21.46L170.951 21.3189L170.948 21.3086L170.471 21.46ZM169.931 19.76L170.408 19.6086L170.297 19.26H169.931V19.76ZM164.231 19.76V19.26H163.865L163.755 19.6086L164.231 19.76ZM163.691 21.46L164.167 21.6145L164.168 21.6114L163.691 21.46ZM163.191 23.62V24.12H163.628L163.687 23.687L163.191 23.62ZM158.511 23.62L158.064 23.3964L157.702 24.12H158.511V23.62ZM159.471 21.18L159 21.0111L159 21.0136L159.471 21.18ZM163.791 9.14L163.322 8.96759L163.32 8.97114L163.791 9.14ZM164.431 6.98V6.48H164.01L163.938 6.89505L164.431 6.98ZM169.651 6.98L170.137 6.86268L170.045 6.48H169.651V6.98ZM170.331 9.14L170.802 8.97043L170.799 8.96347L170.331 9.14ZM174.671 21.18L175.142 21.0113L175.141 21.0104L174.671 21.18ZM168.951 16.4V16.9H169.634L169.428 16.2491L168.951 16.4ZM167.051 10.4L167.528 10.2491L167.046 8.72775L166.574 10.2519L167.051 10.4ZM165.191 16.4L164.714 16.252L164.513 16.9H165.191V16.4ZM175.631 23.12H170.951V24.12H175.631V23.12ZM171.444 23.5378C171.282 22.5616 171.157 22.0215 170.951 21.3189L169.991 21.6011C170.185 22.2585 170.301 22.7584 170.458 23.7022L171.444 23.5378ZM170.948 21.3086L170.408 19.6086L169.455 19.9114L169.995 21.6114L170.948 21.3086ZM169.931 19.26H164.231V20.26H169.931V19.26ZM163.755 19.6086L163.215 21.3086L164.168 21.6114L164.708 19.9114L163.755 19.6086ZM163.216 21.3055C162.947 22.1327 162.8 22.782 162.696 23.553L163.687 23.687C163.782 22.978 163.915 22.3873 164.167 21.6145L163.216 21.3055ZM163.191 23.12H158.511V24.12H163.191V23.12ZM158.958 23.8436C159.274 23.2117 159.464 22.7032 159.943 21.3464L159 21.0136C158.518 22.3768 158.348 22.8283 158.064 23.3964L158.958 23.8436ZM159.942 21.3489L164.262 9.30886L163.32 8.97114L159 21.0111L159.942 21.3489ZM164.26 9.31241C164.624 8.32384 164.816 7.6901 164.924 7.06495L163.938 6.89505C163.846 7.4299 163.679 7.99616 163.322 8.96759L164.26 9.31241ZM164.431 7.48H169.651V6.48H164.431V7.48ZM169.165 7.09732C169.31 7.69615 169.456 8.23601 169.863 9.31653L170.799 8.96347C170.407 7.92399 170.273 7.42385 170.137 6.86268L169.165 7.09732ZM169.861 9.30955L174.201 21.3496L175.141 21.0104L170.801 8.97045L169.861 9.30955ZM174.2 21.3487C174.581 22.4117 174.908 23.2492 175.178 23.8306L176.085 23.4094C175.835 22.8708 175.521 22.0683 175.142 21.0113L174.2 21.3487ZM169.428 16.2491L167.528 10.2491L166.574 10.5509L168.474 16.5509L169.428 16.2491ZM166.574 10.2519L164.714 16.252L165.669 16.548L167.529 10.548L166.574 10.2519ZM165.191 16.9H168.951V15.9H165.191V16.9ZM184.773 9.48L185.189 9.20197L185.188 9.201L184.773 9.48ZM188.573 15.16L188.158 15.438L188.159 15.4396L188.573 15.16ZM190.013 17.54L189.574 17.7794L190.512 17.4967L190.013 17.54ZM189.733 6.98V6.48H189.164L189.238 7.04467L189.733 6.98ZM193.993 6.98L194.489 7.04608L194.565 6.48H193.993V6.98ZM193.993 23.62V24.12H194.556L194.49 23.5609L193.993 23.62ZM189.613 23.62L189.162 23.834L189.297 24.12H189.613V23.62ZM188.113 21.08L188.532 20.8064L188.53 20.8037L188.113 21.08ZM184.413 15.5L184.83 15.2237L184.828 15.2203L184.413 15.5ZM182.973 13.04L183.416 12.8064L182.476 13.0952L182.973 13.04ZM183.273 23.62V24.12H183.848L183.769 23.5509L183.273 23.62ZM179.013 23.62L178.519 23.544L178.431 24.12H179.013V23.62ZM179.013 6.98V6.48H178.444L178.518 7.04467L179.013 6.98ZM183.353 6.98L183.822 6.80634L183.701 6.48H183.353V6.98ZM184.358 9.75802L188.158 15.438L188.989 14.882L185.189 9.20197L184.358 9.75802ZM188.159 15.4396C188.729 16.2845 189.101 16.9108 189.574 17.7794L190.452 17.3006C189.966 16.4092 189.578 15.7555 188.988 14.8804L188.159 15.4396ZM190.512 17.4967C190.433 16.5925 190.393 15.687 190.393 14.58H189.393C189.393 15.713 189.434 16.6475 189.515 17.5833L190.512 17.4967ZM190.393 14.58V10.02H189.393V14.58H190.393ZM190.393 10.02C190.393 8.68778 190.353 7.86442 190.229 6.91533L189.238 7.04467C189.354 7.93557 189.393 8.71222 189.393 10.02H190.393ZM189.733 7.48H193.993V6.48H189.733V7.48ZM193.498 6.91392C193.374 7.84452 193.333 8.70887 193.333 10.02H194.333C194.333 8.73113 194.373 7.91548 194.489 7.04608L193.498 6.91392ZM193.333 10.02V20.64H194.333V10.02H193.333ZM193.333 20.64C193.333 21.8778 193.394 22.8176 193.497 23.6791L194.49 23.5609C194.392 22.7424 194.333 21.8422 194.333 20.64H193.333ZM193.993 23.12H189.613V24.12H193.993V23.12ZM190.065 23.406C189.689 22.6119 189.212 21.8467 188.532 20.8064L187.695 21.3536C188.375 22.3933 188.818 23.1081 189.162 23.834L190.065 23.406ZM188.53 20.8037L184.83 15.2237L183.997 15.7763L187.697 21.3563L188.53 20.8037ZM184.828 15.2203C184.302 14.4415 183.972 13.8592 183.416 12.8064L182.531 13.2736C183.095 14.3408 183.445 14.9585 183.999 15.7797L184.828 15.2203ZM182.476 13.0952C182.574 13.9702 182.613 15.0502 182.613 16.02H183.613C183.613 15.0298 183.573 13.9098 183.47 12.9848L182.476 13.0952ZM182.613 16.02V20.5H183.613V16.02H182.613ZM182.613 20.5C182.613 21.8884 182.654 22.7952 182.778 23.6891L183.769 23.5509C183.653 22.7248 183.613 21.8716 183.613 20.5H182.613ZM183.273 23.12H179.013V24.12H183.273V23.12ZM179.508 23.696C179.634 22.8763 179.673 21.9646 179.673 20.48H178.673C178.673 21.9554 178.633 22.8037 178.519 23.544L179.508 23.696ZM179.673 20.48V9.96H178.673V20.48H179.673ZM179.673 9.96C179.673 8.78821 179.633 7.86471 179.509 6.91533L178.518 7.04467C178.634 7.93529 178.673 8.81179 178.673 9.96H179.673ZM179.013 7.48H183.353V6.48H179.013V7.48ZM182.885 7.15366C183.106 7.7517 183.574 8.5921 184.359 9.759L185.188 9.201C184.413 8.0479 184.001 7.2883 183.822 6.80634L182.885 7.15366Z" fill="#1F316B"/>
<path d="M125.54 11.98L121.42 12.78C121.04 10.96 119.98 10.06 118.26 10.06C115.82 10.06 114.4 11.98 114.4 15.28C114.4 18.54 115.88 20.52 118.36 20.52C119.46 20.52 120.4 20.06 120.98 19.26C121.32 18.78 121.46 18.38 121.58 17.54L125.74 18.16C125.36 19.86 124.92 20.84 124.08 21.82C122.84 23.24 120.9 24 118.48 24C116.04 24 113.98 23.24 112.56 21.8C111.08 20.3 110.24 17.96 110.24 15.28C110.24 12.56 111.08 10.26 112.66 8.7C114.04 7.36 116.06 6.62 118.4 6.62C120.98 6.62 123 7.5 124.3 9.24C124.94 10.06 125.28 10.8 125.54 11.98ZM129.215 19.18V15.38C129.835 15.48 130.395 15.52 131.155 15.52H135.115C135.875 15.52 136.435 15.48 137.055 15.38V19.18C136.395 19.08 135.855 19.04 135.115 19.04H131.155C130.415 19.04 129.875 19.08 129.215 19.18ZM155.907 11.98L151.787 12.78C151.407 10.96 150.347 10.06 148.627 10.06C146.187 10.06 144.767 11.98 144.767 15.28C144.767 18.54 146.247 20.52 148.727 20.52C149.827 20.52 150.767 20.06 151.347 19.26C151.687 18.78 151.827 18.38 151.947 17.54L156.107 18.16C155.727 19.86 155.287 20.84 154.447 21.82C153.207 23.24 151.267 24 148.847 24C146.407 24 144.347 23.24 142.927 21.8C141.447 20.3 140.607 17.96 140.607 15.28C140.607 12.56 141.447 10.26 143.027 8.7C144.407 7.36 146.427 6.62 148.767 6.62C151.347 6.62 153.367 7.5 154.667 9.24C155.307 10.06 155.647 10.8 155.907 11.98Z" fill="#FF6347"/>
<path d="M125.54 11.98L125.731 12.9617L126.737 12.7662L126.517 11.7648L125.54 11.98ZM121.42 12.78L120.441 12.9844L120.643 13.9496L121.611 13.7617L121.42 12.78ZM120.98 19.26L121.79 19.847L121.796 19.838L120.98 19.26ZM121.58 17.54L121.727 16.5509L120.732 16.4026L120.59 17.3986L121.58 17.54ZM125.74 18.16L126.716 18.3781L126.95 17.3293L125.887 17.1709L125.74 18.16ZM124.08 21.82L124.833 22.4778L124.839 22.4708L124.08 21.82ZM112.56 21.8L113.272 21.0979L113.272 21.0977L112.56 21.8ZM112.66 8.7L111.963 7.98255L111.957 7.9884L112.66 8.7ZM124.3 9.24L123.499 9.83853L123.505 9.84697L123.512 9.85527L124.3 9.24ZM125.349 10.9983L121.229 11.7983L121.611 13.7617L125.731 12.9617L125.349 10.9983ZM122.399 12.5756C122.179 11.5205 121.736 10.6155 120.994 9.9785C120.244 9.33519 119.298 9.06 118.26 9.06V11.06C118.942 11.06 119.386 11.2348 119.691 11.4965C120.004 11.7645 120.281 12.2195 120.441 12.9844L122.399 12.5756ZM118.26 9.06C116.745 9.06 115.472 9.67332 114.611 10.8379C113.779 11.9627 113.4 13.5053 113.4 15.28H115.4C115.4 13.7547 115.731 12.6873 116.219 12.0271C116.678 11.4067 117.335 11.06 118.26 11.06V9.06ZM113.4 15.28C113.4 17.0452 113.799 18.5927 114.651 19.7243C115.53 20.8902 116.822 21.52 118.36 21.52V19.52C117.418 19.52 116.73 19.1598 116.249 18.5207C115.741 17.8473 115.4 16.7748 115.4 15.28H113.4ZM118.36 21.52C119.747 21.52 121.003 20.9321 121.79 19.847L120.17 18.673C119.797 19.1879 119.173 19.52 118.36 19.52V21.52ZM121.796 19.838C122.259 19.1843 122.437 18.6147 122.57 17.6814L120.59 17.3986C120.483 18.1453 120.381 18.3757 120.164 18.682L121.796 19.838ZM121.433 18.5291L125.593 19.1491L125.887 17.1709L121.727 16.5509L121.433 18.5291ZM124.764 17.9419C124.407 19.5389 124.022 20.3512 123.321 21.1692L124.839 22.4708C125.818 21.3288 126.313 20.1811 126.716 18.3781L124.764 17.9419ZM123.327 21.1622C122.326 22.3081 120.696 23 118.48 23V25C121.104 25 123.354 24.1719 124.833 22.4778L123.327 21.1622ZM118.48 23C116.245 23 114.465 22.3072 113.272 21.0979L111.848 22.5021C113.495 24.1728 115.835 25 118.48 25V23ZM113.272 21.0977C112.021 19.83 111.24 17.7683 111.24 15.28H109.24C109.24 18.1517 110.139 20.77 111.848 22.5023L113.272 21.0977ZM111.24 15.28C111.24 12.7604 112.016 10.7414 113.363 9.4116L111.957 7.9884C110.144 9.77864 109.24 12.3596 109.24 15.28H111.24ZM113.357 9.41743C114.514 8.29383 116.265 7.62 118.4 7.62V5.62C115.855 5.62 113.566 6.42617 111.963 7.98257L113.357 9.41743ZM118.4 7.62C120.74 7.62 122.429 8.40627 123.499 9.83853L125.101 8.64147C123.571 6.59373 121.22 5.62 118.4 5.62V7.62ZM123.512 9.85527C124.049 10.5434 124.331 11.1422 124.563 12.1952L126.517 11.7648C126.229 10.4578 125.831 9.5766 125.088 8.62473L123.512 9.85527ZM129.215 19.18H128.215V20.3429L129.364 20.1687L129.215 19.18ZM129.215 15.38L129.374 14.3928L128.215 14.2058V15.38H129.215ZM137.055 15.38H138.055V14.2058L136.895 14.3928L137.055 15.38ZM137.055 19.18L136.905 20.1687L138.055 20.3429V19.18H137.055ZM130.215 19.18V15.38H128.215V19.18H130.215ZM129.055 16.3672C129.738 16.4774 130.353 16.52 131.155 16.52V14.52C130.437 14.52 129.931 14.4826 129.374 14.3928L129.055 16.3672ZM131.155 16.52H135.115V14.52H131.155V16.52ZM135.115 16.52C135.917 16.52 136.531 16.4774 137.214 16.3672L136.895 14.3928C136.338 14.4826 135.833 14.52 135.115 14.52V16.52ZM136.055 15.38V19.18H138.055V15.38H136.055ZM137.204 18.1913C136.491 18.0832 135.901 18.04 135.115 18.04V20.04C135.808 20.04 136.298 20.0768 136.905 20.1687L137.204 18.1913ZM135.115 18.04H131.155V20.04H135.115V18.04ZM131.155 18.04C130.368 18.04 129.778 18.0832 129.065 18.1913L129.364 20.1687C129.971 20.0768 130.461 20.04 131.155 20.04V18.04ZM155.907 11.98L156.098 12.9617L157.104 12.7662L156.884 11.7648L155.907 11.98ZM151.787 12.78L150.808 12.9844L151.01 13.9496L151.978 13.7617L151.787 12.78ZM151.347 19.26L152.157 19.847L152.163 19.838L151.347 19.26ZM151.947 17.54L152.095 16.5509L151.1 16.4026L150.957 17.3986L151.947 17.54ZM156.107 18.16L157.083 18.3781L157.318 17.3293L156.255 17.1709L156.107 18.16ZM154.447 21.82L155.2 22.4778L155.206 22.4708L154.447 21.82ZM142.927 21.8L143.639 21.0979L143.639 21.0977L142.927 21.8ZM143.027 8.7L142.331 7.98255L142.325 7.9884L143.027 8.7ZM154.667 9.24L153.866 9.83853L153.872 9.84697L153.879 9.85527L154.667 9.24ZM155.717 10.9983L151.597 11.7983L151.978 13.7617L156.098 12.9617L155.717 10.9983ZM152.766 12.5756C152.546 11.5205 152.103 10.6155 151.361 9.9785C150.611 9.33519 149.666 9.06 148.627 9.06V11.06C149.309 11.06 149.754 11.2348 150.059 11.4965C150.371 11.7645 150.649 12.2195 150.808 12.9844L152.766 12.5756ZM148.627 9.06C147.112 9.06 145.839 9.67332 144.978 10.8379C144.146 11.9627 143.767 13.5053 143.767 15.28H145.767C145.767 13.7547 146.098 12.6873 146.586 12.0271C147.045 11.4067 147.702 11.06 148.627 11.06V9.06ZM143.767 15.28C143.767 17.0452 144.166 18.5927 145.019 19.7243C145.897 20.8902 147.189 21.52 148.727 21.52V19.52C147.785 19.52 147.097 19.1598 146.616 18.5207C146.108 17.8473 145.767 16.7748 145.767 15.28H143.767ZM148.727 21.52C150.115 21.52 151.37 20.9321 152.157 19.847L150.538 18.673C150.164 19.1879 149.54 19.52 148.727 19.52V21.52ZM152.163 19.838C152.626 19.1843 152.804 18.6147 152.937 17.6814L150.957 17.3986C150.851 18.1453 150.748 18.3757 150.531 18.682L152.163 19.838ZM151.8 18.5291L155.96 19.1491L156.255 17.1709L152.095 16.5509L151.8 18.5291ZM155.131 17.9419C154.774 19.5389 154.389 20.3512 153.688 21.1692L155.206 22.4708C156.185 21.3288 156.68 20.1811 157.083 18.3781L155.131 17.9419ZM153.694 21.1622C152.693 22.3081 151.063 23 148.847 23V25C151.471 25 153.721 24.1719 155.2 22.4778L153.694 21.1622ZM148.847 23C146.613 23 144.832 22.3072 143.639 21.0979L142.215 22.5021C143.863 24.1728 146.202 25 148.847 25V23ZM143.639 21.0977C142.388 19.83 141.607 17.7683 141.607 15.28H139.607C139.607 18.1517 140.506 20.77 142.215 22.5023L143.639 21.0977ZM141.607 15.28C141.607 12.7604 142.383 10.7414 143.73 9.4116L142.325 7.9884C140.511 9.77864 139.607 12.3596 139.607 15.28H141.607ZM143.724 9.41743C144.881 8.29383 146.632 7.62 148.767 7.62V5.62C146.222 5.62 143.933 6.42617 142.331 7.98257L143.724 9.41743ZM148.767 7.62C151.108 7.62 152.796 8.40627 153.866 9.83853L155.468 8.64147C153.938 6.59373 151.587 5.62 148.767 5.62V7.62ZM153.879 9.85527C154.416 10.5434 154.699 11.1422 154.931 12.1952L156.884 11.7648C156.596 10.4578 156.198 9.5766 155.456 8.62473L153.879 9.85527Z" fill="#FF6347"/>
<path d="M60.0433 48V37.598H63.7533C64.4906 37.598 65.1579 37.696 65.7553 37.892C66.3619 38.088 66.8426 38.4193 67.1973 38.886C67.5519 39.3527 67.7293 39.9967 67.7293 40.818C67.7293 41.602 67.5519 42.246 67.1973 42.75C66.8426 43.254 66.3619 43.6227 65.7553 43.856C65.1579 44.0893 64.4906 44.206 63.7533 44.206H62.3253V48H60.0433ZM62.3253 42.4H63.5573C64.1919 42.4 64.6726 42.2647 64.9993 41.994C65.3353 41.7233 65.5033 41.3313 65.5033 40.818C65.5033 40.286 65.3353 39.922 64.9993 39.726C64.6726 39.5207 64.1919 39.418 63.5573 39.418H62.3253V42.4ZM65.6713 48L63.3333 43.618L64.9013 42.148L68.2193 48H65.6713ZM68.9289 48L72.2049 37.598H74.9209L78.1969 48H75.8029L74.4029 42.694C74.2536 42.162 74.1089 41.6067 73.9689 41.028C73.8289 40.44 73.6889 39.8753 73.5489 39.334H73.4929C73.3622 39.8847 73.2222 40.4493 73.0729 41.028C72.9329 41.6067 72.7929 42.162 72.6529 42.694L71.2529 48H68.9289ZM71.0569 45.466V43.702H76.0409V45.466H71.0569ZM80.078 48V37.598H82.57L84.278 42.288C84.3807 42.596 84.4834 42.9133 84.586 43.24C84.6887 43.5667 84.7867 43.8933 84.88 44.22H84.95C85.0527 43.8933 85.1507 43.5667 85.244 43.24C85.3467 42.9133 85.4494 42.596 85.552 42.288L87.204 37.598H89.71V48H87.624V44.052C87.624 43.716 87.6427 43.3427 87.68 42.932C87.7174 42.512 87.7594 42.092 87.806 41.672C87.8527 41.252 87.8947 40.874 87.932 40.538H87.862L87.008 43.002L85.51 47.09H84.222L82.724 43.002L81.884 40.538H81.828C81.8747 40.874 81.9167 41.252 81.954 41.672C82.0007 42.092 82.038 42.512 82.066 42.932C82.1034 43.3427 82.122 43.716 82.122 44.052V48H80.078ZM92.8913 48V37.598H99.3733V39.502H95.1733V41.672H98.7293V43.59H95.1733V46.082H99.5273V48H92.8913ZM102.314 48V37.598H104.638L107.438 42.862L108.474 45.144H108.544C108.479 44.5933 108.409 43.9867 108.334 43.324C108.269 42.652 108.236 42.008 108.236 41.392V37.598H110.406V48H108.082L105.296 42.708L104.26 40.468H104.19C104.237 41.028 104.297 41.6347 104.372 42.288C104.447 42.9413 104.484 43.576 104.484 44.192V48H102.314ZM117.495 48V37.598H119.819L122.619 42.862L123.655 45.144H123.725C123.66 44.5933 123.59 43.9867 123.515 43.324C123.45 42.652 123.417 42.008 123.417 41.392V37.598H125.587V48H123.263L120.477 42.708L119.441 40.468H119.371C119.418 41.028 119.479 41.6347 119.553 42.288C119.628 42.9413 119.665 43.576 119.665 44.192V48H117.495ZM132.865 48.196C132.193 48.196 131.6 48.1027 131.087 47.916C130.574 47.72 130.14 47.4213 129.785 47.02C129.44 46.6187 129.178 46.1007 129.001 45.466C128.824 44.8313 128.735 44.0847 128.735 43.226V37.598H131.003V43.45C131.003 44.1313 131.078 44.6773 131.227 45.088C131.376 45.4893 131.586 45.7787 131.857 45.956C132.137 46.1333 132.473 46.222 132.865 46.222C133.257 46.222 133.593 46.1333 133.873 45.956C134.153 45.7787 134.368 45.4893 134.517 45.088C134.676 44.6773 134.755 44.1313 134.755 43.45V37.598H136.953V43.226C136.953 44.0847 136.864 44.8313 136.687 45.466C136.51 46.1007 136.248 46.6187 135.903 47.02C135.558 47.4213 135.128 47.72 134.615 47.916C134.111 48.1027 133.528 48.196 132.865 48.196ZM142.977 48.196C142.287 48.196 141.605 48.07 140.933 47.818C140.261 47.5567 139.664 47.1833 139.141 46.698L140.443 45.116C140.807 45.452 141.218 45.7227 141.675 45.928C142.142 46.124 142.59 46.222 143.019 46.222C143.523 46.222 143.897 46.1287 144.139 45.942C144.391 45.746 144.517 45.4893 144.517 45.172C144.517 44.9387 144.452 44.752 144.321 44.612C144.2 44.472 144.027 44.346 143.803 44.234C143.579 44.122 143.313 44.0053 143.005 43.884L141.647 43.31C141.293 43.1607 140.952 42.9647 140.625 42.722C140.308 42.47 140.047 42.162 139.841 41.798C139.645 41.4247 139.547 40.9907 139.547 40.496C139.547 39.9173 139.701 39.3947 140.009 38.928C140.327 38.4613 140.761 38.0927 141.311 37.822C141.871 37.5513 142.511 37.416 143.229 37.416C143.836 37.416 144.429 37.5327 145.007 37.766C145.595 37.99 146.109 38.326 146.547 38.774L145.399 40.202C145.063 39.9407 144.723 39.74 144.377 39.6C144.032 39.4507 143.649 39.376 143.229 39.376C142.809 39.376 142.478 39.4647 142.235 39.642C141.993 39.81 141.871 40.0433 141.871 40.342C141.871 40.566 141.941 40.7527 142.081 40.902C142.221 41.042 142.408 41.168 142.641 41.28C142.884 41.3827 143.159 41.4947 143.467 41.616L144.797 42.162C145.217 42.33 145.581 42.5447 145.889 42.806C146.197 43.058 146.435 43.3613 146.603 43.716C146.771 44.0707 146.855 44.4953 146.855 44.99C146.855 45.5687 146.701 46.1007 146.393 46.586C146.095 47.0713 145.651 47.4633 145.063 47.762C144.485 48.0513 143.789 48.196 142.977 48.196ZM148.015 48L151.291 37.598H154.007L157.283 48H154.889L153.489 42.694C153.34 42.162 153.195 41.6067 153.055 41.028C152.915 40.44 152.775 39.8753 152.635 39.334H152.579C152.449 39.8847 152.309 40.4493 152.159 41.028C152.019 41.6067 151.879 42.162 151.739 42.694L150.339 48H148.015ZM150.143 45.466V43.702H155.127V45.466H150.143ZM159.164 48V37.598H161.488L164.288 42.862L165.324 45.144H165.394C165.329 44.5933 165.259 43.9867 165.184 43.324C165.119 42.652 165.086 42.008 165.086 41.392V37.598H167.256V48H164.932L162.146 42.708L161.11 40.468H161.04C161.087 41.028 161.148 41.6347 161.222 42.288C161.297 42.9413 161.334 43.576 161.334 44.192V48H159.164ZM172.49 48V39.502H169.62V37.598H177.656V39.502H174.786V48H172.49ZM177.965 48L181.241 37.598H183.957L187.233 48H184.839L183.439 42.694C183.289 42.162 183.145 41.6067 183.005 41.028C182.865 40.44 182.725 39.8753 182.585 39.334H182.529C182.398 39.8847 182.258 40.4493 182.109 41.028C181.969 41.6067 181.829 42.162 181.689 42.694L180.289 48H177.965ZM180.093 45.466V43.702H185.077V45.466H180.093ZM189.114 48V37.598H192.824C193.561 37.598 194.229 37.696 194.826 37.892C195.433 38.088 195.913 38.4193 196.268 38.886C196.623 39.3527 196.8 39.9967 196.8 40.818C196.8 41.602 196.623 42.246 196.268 42.75C195.913 43.254 195.433 43.6227 194.826 43.856C194.229 44.0893 193.561 44.206 192.824 44.206H191.396V48H189.114ZM191.396 42.4H192.628C193.263 42.4 193.743 42.2647 194.07 41.994C194.406 41.7233 194.574 41.3313 194.574 40.818C194.574 40.286 194.406 39.922 194.07 39.726C193.743 39.5207 193.263 39.418 192.628 39.418H191.396V42.4ZM194.742 48L192.404 43.618L193.972 42.148L197.29 48H194.742ZM198 48L201.276 37.598H203.992L207.268 48H204.874L203.474 42.694C203.324 42.162 203.18 41.6067 203.04 41.028C202.9 40.44 202.76 39.8753 202.62 39.334H202.564C202.433 39.8847 202.293 40.4493 202.144 41.028C202.004 41.6067 201.864 42.162 201.724 42.694L200.324 48H198ZM200.128 45.466V43.702H205.112V45.466H200.128Z" fill="#1F316B"/>
</svg>
